OpenSim_Sub07_EMGStiffKnee_GRF.mot
version=1
nRows=47
nColumns=19
inDegrees=no
endheader
time	lFx	lFy	lFz	lCOPx	lCOPy	lCOPz	rFx	rFy	rFz	rCOPx	rCOPy	rCOPz	lMx	lMy	lMz	rMx	rMy	rMz
36.94000000	-1.02882107	-0.06808742	-4.75803816	0.00042073	0	-0.00063088	-39.25194608	653.00211505	-42.76439325	0.68088229	0	-0.43453772	0	-0.00294521	0	0	-4.78777707	-0.00000000
36.95000000	-1.05413312	-0.01829947	-4.76269899	0.00043938	0	-0.00045315	-35.60001459	641.14403288	-42.00950264	0.67636977	0	-0.43296143	0	-0.00234430	0	0	-4.76897807	-0.00000000
36.96000000	-1.08642191	0.01909924	-4.72135310	0.00024349	0	-0.00019918	-32.48280906	633.32535605	-41.84965620	0.67164518	0	-0.43138386	0	-0.00111441	0	0	-4.65205947	0
36.97000000	-1.11662916	0.03197338	-4.71046086	0.00008054	0	-0.00004117	-30.08565270	629.16006846	-42.14866636	0.66675509	0	-0.42984601	0	-0.00028073	0	0	-4.51254766	0
36.98000000	-1.13475171	0.05934067	-4.68891409	0.00000076	0	0.00001932	-28.20242663	628.09905126	-42.71270778	0.66170263	0	-0.42843146	0	0.00006743	0	0	-4.38653325	0
36.99000000	-1.14828439	0.07892674	-4.70801732	-0.00002063	0	0.00002644	-26.51341935	629.88100328	-43.25519560	0.65634976	0	-0.42719553	0	0.00012843	0	0	-4.18420414	-0.00000000
37	-1.16098242	0.05839734	-4.72356259	-0.00001684	0	0.00001623	-24.90798944	634.62110305	-43.43544042	0.65082255	0	-0.42612249	0	0.00008582	0	0	-3.93124236	0.00000000
37.01000000	-1.15646706	-0.00152343	-4.68602363	-0.00000815	0	0.00000612	-23.53246389	642.45726021	-43.10364761	0.64507877	0	-0.42520334	0	0.00003536	0	0	-3.71077718	0
37.02000000	-1.11970329	-0.08266269	-4.68312747	-0.00000213	0	0.00000066	-22.45300853	653.13072078	-42.45743882	0.63904816	0	-0.42446000	0	0.00000589	0	0	-3.46427258	0
37.03000000	-1.07417950	-0.13136210	-4.64770845	0.00000043	0	-0.00000108	-21.60344105	665.90917276	-41.67230332	0.63272815	0	-0.42390614	0	-0.00000457	0	0	-3.19173939	0
37.04000000	-1.05494327	-0.15031740	-4.59197447	0.00000091	0	-0.00000105	-20.72906504	679.91880816	-40.90637114	0.62622408	0	-0.42352893	0	-0.00000524	0	0	-2.96791985	0
37.05000000	-1.06213881	-0.15226525	-4.52687647	0.00000062	0	-0.00000056	-19.69712014	694.34967862	-40.36542648	0.61951861	0	-0.42331456	0	-0.00000303	0	0	-2.75526073	0
37.06000000	-1.06903643	-0.07755170	-4.47343240	0.00000026	0	-0.00000018	-18.47953132	708.55512558	-40.05969518	0.61261955	0	-0.42318344	0	-0.00000106	0	0	-2.48815853	0
37.07000000	-1.08503866	0.02987941	-4.44242414	0.00000005	0	0.00000000	-17.03469777	721.99239780	-39.91256266	0.60562105	0	-0.42305922	0	-0.00000006	0	0	-2.21510477	0
37.08000000	-1.11059614	0.10397349	-4.43812555	-0.00000003	0	0.00000005	-15.10787162	734.07963559	-39.82825857	0.59849005	0	-0.42291924	0	0.00000024	0	0	-2.02648114	0
37.09000000	-1.14932145	0.16827865	-4.44956047	-0.00000004	0	0.00000004	-12.73671076	744.19195271	-39.83519821	0.59128530	0	-0.42277552	0	0.00000025	0	0	-1.85514465	0
37.10000000	-1.19232917	0.21487907	-4.46426904	-0.00000004	0	0.00000003	-10.22663111	751.66284279	-39.98518379	0.58420568	0	-0.42266150	0	0.00000023	0	0	-1.65465047	-0.00000000
37.11000000	-1.24112398	0.24251924	-4.47328507	-0.00000005	0	0.00000004	-7.83486246	756.10138355	-40.09854549	0.57732674	0	-0.42257987	0	0.00000025	0	0	-1.51034568	0
37.12000000	-1.30757330	0.22320137	-4.47828935	-0.00000007	0	0.00000005	-5.43696110	757.60599196	-40.12350856	0.57058050	0	-0.42252446	0	0.00000018	0	0	-1.38864965	0
37.13000000	-1.38071166	0.21768245	-4.47888739	-0.00000005	0	0.00000005	-2.97966214	756.72164904	-40.08655925	0.56398505	0	-0.42246966	0	-0.00000029	0	0	-1.23712604	0
37.14000000	-1.42274974	0.22588831	-4.49209489	0.00000010	0	-0.00000006	-0.56462345	754.05230744	-39.93110041	0.55757790	0	-0.42235743	0	-0.00000156	0	0	-1.12930099	0
37.15000000	-1.43264491	0.21793100	-4.53056701	0.00000050	0	-0.00000037	1.92563870	750.00924332	-39.77368259	0.55135243	0	-0.42217812	0	-0.00000370	0	0	-1.05006508	0
37.16000000	-1.44946152	0.16935657	-4.57854717	0.00000117	0	-0.00000090	4.63204299	744.87620541	-39.71278857	0.54508057	0	-0.42194788	0	-0.00000541	0	0	-0.90496646	-0.00000000
37.17000000	-1.47493328	0.10863167	-4.62863517	0.00000167	0	-0.00000136	7.62358607	739.22840836	-39.74158391	0.53880988	0	-0.42166754	0	-0.00000255	0	0	-0.74282632	-0.00000000
37.18000000	-1.48951924	0.09311651	-4.67042541	0.00000068	0	-0.00000075	10.66889601	733.68538860	-39.91164082	0.53263243	0	-0.42137630	0	0.00001271	0	0	-0.62249905	-0.00000000
37.19000000	-1.49843280	0.14054159	-4.71114793	-0.00000423	0	0.00000289	13.59641915	728.74943283	-40.26979778	0.52656988	0	-0.42112685	0	0.00004856	0	0	-0.51231827	0
37.20000000	-1.52526434	0.21132846	-4.77000538	-0.00001554	0	0.00001166	16.35646837	724.70025820	-40.81716888	0.52049360	0	-0.42094526	0	0.00010035	0	0	-0.40805133	-0.00000000
37.21000000	-1.55591956	0.27827137	-4.81321386	-0.00003148	0	0.00002473	19.00383734	721.76621708	-41.63576564	0.51456550	0	-0.42084382	0	0.00012280	0	0	-0.34818383	0
37.22000000	-1.58523154	0.34292427	-4.77956162	-0.00003737	0	0.00003141	21.44330695	720.03187444	-42.64580239	0.50889964	0	-0.42082604	0	-0.00000486	0	0	-0.32764703	-0.00000000
37.23000000	-1.63870501	0.36095067	-4.74153088	0.00000504	0	0.00000232	23.64119550	719.25637252	-43.54721481	0.50342570	0	-0.42091482	0	-0.00048054	0	0	-0.28118056	0.00000000
37.24000000	-1.74355588	0.36393884	-4.73486619	0.00015714	0	-0.00011201	25.75221729	719.08704152	-44.05541381	0.49795375	0	-0.42109218	0	-0.00145146	0	0	-0.22950118	0.00000000
37.25000000	-1.85597027	0.39134621	-4.75138733	0.00046154	0	-0.00035142	28.17651364	719.23065619	-44.15270115	0.49225505	0	-0.42132689	0	-0.00261766	0	0	-0.14261696	0
37.26000000	-1.93474219	0.42965754	-4.78039933	0.00081595	0	-0.00065022	31.05613003	719.56998532	-43.88109688	0.48635268	0	-0.42158754	0	-0.00250331	0	0	0.01337734	0
37.27000000	-1.92657573	0.46768625	-4.81340664	0.00074576	0	-0.00065640	34.15476580	719.94007617	-43.31405602	0.48031635	0	-0.42187092	0	0.00226858	0	0	0.18584729	0
37.28000000	-1.81761521	0.38486366	-4.89332515	-0.00081282	0	0.00045775	37.20254501	720.03200106	-42.69124522	0.47423535	0	-0.42218666	0	0.01643151	0	0	0.34473236	0
37.29000000	-1.67412492	0.04110281	-4.99957319	-0.00531412	0	0.00388916	40.11183350	719.49547808	-42.20885484	0.46807805	0	-0.42253529	0	0.04165957	0	0	0.52519765	0
37.30000000	-1.74236709	-0.50063660	-5.07700191	-0.01317306	0	0.01016069	42.84065826	718.09925005	-41.82353388	0.46197468	0	-0.42289057	0	0.06512456	0	0	0.72890654	0
37.31000000	-2.55282590	-0.74638096	-5.05035368	-0.02014407	0	0.01633292	45.34139469	715.64368035	-41.47976611	0.45609164	0	-0.42321769	0	0.04123895	0	0	0.86841635	0.00000000
37.32000000	-4.87972933	0.64341950	-4.76764420	-0.01166725	0	0.01143203	47.76786249	711.87163319	-41.22085745	0.45040030	0	-0.42350314	0	-0.12080029	0	0	0.91266847	0
37.33000000	-9.03592148	5.74172318	-4.07335875	0.04069539	0	-0.02696347	50.33956605	706.60155101	-41.05725655	0.44465140	0	-0.42374647	0	-0.52588472	0	0	0.90004702	0
37.34000000	-13.39523997	16.92918364	-2.90747935	0.16872246	0	-0.12582645	53.30740937	699.65002155	-41.07579092	0.43872970	0	-0.42399806	0	-1.15054886	0	0	0.86928681	0.00000000
37.35000000	-14.42304635	37.23711587	-1.81678187	0.36500268	0	-0.28480919	56.72101430	690.80865366	-41.21979353	0.43275741	0	-0.42428537	0	-1.53432379	0	0	0.78462612	-0.00000000
37.36000000	-8.58993944	69.85208762	-2.11824784	0.55585020	0	-0.44921592	60.51037263	679.64318242	-41.20680482	0.42688762	0	-0.42459953	0	-0.69255562	0	0	0.69698930	0.00000000
37.37000000	2.08118517	113.73817377	-4.23008337	0.67354987	0	-0.55953075	64.38423655	665.38010453	-40.62970542	0.42126609	0	-0.42491429	0	1.79568462	0	0	0.70202747	0
37.38000000	9.13955003	161.46523819	-6.88704836	0.71199065	0	-0.60481416	68.18894698	646.76151608	-39.08453017	0.41576680	0	-0.42521433	0	4.90281376	0	0	0.81671401	0
37.39000000	8.49776917	207.21719110	-9.25616469	0.70834803	0	-0.61094531	71.72680637	622.58676043	-36.36563704	0.41041290	0	-0.42553881	0	7.82863525	0	0	1.08483280	0
37.40000000	2.88517160	253.07827981	-10.37963527	0.69569855	0	-0.60369675	74.65316130	592.27041650	-32.41404491	0.40535533	0	-0.42592563	0	10.31881226	0	0	1.49443331	0
